Patient4_TMGait_0pt3_03_right_26_GRF.mot
version=1
nRows=78
nColumns=19
inDegrees=no
endheader
time	F1x	F1y	F1z	M1x	M1y	M1z	F2x	F2y	F2z	M2x	M2y	M2z	EC1x	EC1y	EC1z	EC2x	EC2y	EC2z
48.5	-11.7616	800.8541	57.9366	-308.9003	-56.7983	761.0086	2.9776	2.0374	-2.5147	0.48028	2.3312	3.9755	-0.0592	0.0182	-0.0073	-0.0462	0.0165	0.9585
48.5191	-10.654	805.7023	59.3786	-310.367	-57.4822	764.0464	1.9404	2.0569	-1.6903	0.57037	1.6059	3.4315	-0.0592	0.0182	-0.0073	-0.0462	0.0165	0.9585
48.5383	-9.2865	812.0266	60.7064	-312.3504	-57.8711	767.9437	1.0599	2.1077	-0.97734	0.65636	0.97498	3.024	-0.0592	0.0182	-0.0073	-0.0462	0.0165	0.9585
48.5574	-7.6576	819.3369	61.7142	-314.7313	-57.7744	772.2252	0.38194	2.1841	-0.42262	0.73183	0.48217	2.7628	-0.0592	0.0182	-0.0073	-0.0462	0.0165	0.9585
48.5766	-5.7615	826.7456	62.241	-317.2412	-57.0484	776.0701	-0.099275	2.2767	-0.027462	0.79321	0.13395	2.6237	-0.0592	0.0182	-0.0073	-0.0462	0.0165	0.9585
48.5957	-3.6059	833.0762	62.1788	-319.4858	-55.6084	778.419	-0.4119	2.3647	0.22953	0.83648	-0.085229	2.5664	-0.0592	0.0182	-0.0073	-0.0462	0.0165	0.9585
48.6149	-1.2105	837.0382	61.4788	-321.0015	-53.436	778.1322	-0.59501	2.4137	0.37522	0.85622	-0.19926	2.5344	-0.0592	0.0182	-0.0073	-0.0462	0.0165	0.9585
48.634	1.4172	837.4596	60.164	-321.3415	-50.5774	774.1922	-0.68954	2.3804	0.43779	0.84292	-0.23517	2.4624	-0.0592	0.0182	-0.0073	-0.0462	0.0165	0.9585
48.6531	4.2955	833.5409	58.3394	-320.1763	-47.1447	765.9386	-0.72941	2.2077	0.4446	0.78126	-0.22195	2.2744	-0.0592	0.0182	-0.0073	-0.0462	0.0165	0.9585
48.6723	7.4559	825.0313	56.1889	-317.3666	-43.3156	753.2258	-0.73678	1.8292	0.41968	0.65191	-0.18477	1.8872	-0.0592	0.0182	-0.0073	-0.0462	0.0165	0.9585
48.6914	10.9358	812.3301	53.9329	-313.0133	-39.2959	736.4987	-0.72498	1.1744	0.38329	0.43378	-0.14358	1.2174	-0.0592	0.0182	-0.0073	-0.0462	0.0165	0.9585
48.7106	14.7611	796.474	51.7832	-307.465	-35.2869	716.7686	-0.6969	0.18223	0.35623	0.10616	-0.11894	0.19355	-0.0592	0.0182	-0.0073	-0.0462	0.0165	0.9585
48.7297	18.9187	778.9967	49.9155	-301.2714	-31.4692	695.4832	-0.64121	-1.177	0.35844	-0.34239	-0.13413	-1.218	-0.0592	0.0182	-0.0073	-0.0462	0.0165	0.9585
48.7489	23.3594	761.689	48.4468	-295.0941	-27.9765	674.3138	-0.53116	-2.8651	0.40129	-0.89935	-0.21332	-2.9792	-0.0592	0.0182	-0.0073	-0.0462	0.0165	0.9585
48.768	28.0013	746.3068	47.4339	-289.5914	-24.8907	654.8991	-0.3307	-4.7204	0.48769	-1.5107	-0.37425	-4.9259	-0.0592	0.0182	-0.0073	-0.0462	0.0165	0.9585
48.7871	32.7275	734.248	46.8982	-285.2906	-22.264	638.568	-0.0001956	-6.392	0.61318	-2.0594	-0.62413	-6.7019	-0.0592	0.0182	-0.0073	-0.0462	0.0165	0.9585
48.8063	37.3992	726.2612	46.8493	-282.4681	-20.1393	626.0777	0.49324	-7.275	0.76571	-2.3458	-0.9574	-7.6896	-0.0592	0.0182	-0.0073	-0.0462	0.0165	0.9585
48.8254	41.8605	722.2396	47.2838	-281.0659	-18.5548	617.4405	1.1623	-6.4565	0.9191	-2.0696	-1.3465	-6.9498	-0.0592	0.0182	-0.0073	-0.0462	0.0165	0.9585
48.8446	45.9143	721.1455	48.182	-280.6635	-17.5564	611.8717	1.9878	-2.6871	1.0294	-0.82095	-1.7311	-3.1931	-0.0592	0.0182	-0.0073	-0.0462	0.0165	0.9585
48.8637	49.339	721.1679	49.4862	-280.5433	-17.1786	607.924	2.892	5.5848	1.0262	1.9094	-2.0031	5.1853	-0.0592	0.0182	-0.0073	-0.0462	0.0165	0.9585
48.8829	51.935	720.0794	51.0604	-279.8355	-17.3924	603.7877	3.7067	20.0636	0.80443	6.6812	-1.988	19.9594	-0.0592	0.0182	-0.0073	-0.0462	0.0165	0.9585
48.902	53.5106	715.5402	52.6897	-277.6362	-18.1032	597.5606	4.1417	42.288	0.2271	13.9985	-1.4392	42.7482	-0.0592	0.0182	-0.0073	-0.0462	0.0165	0.9585
48.9211	53.874	705.3311	54.0974	-273.0969	-19.1688	587.4369	3.7511	73.0925	-0.86136	24.1315	-0.044688	74.4626	-0.0592	0.0182	-0.0073	-0.0462	0.0165	0.9585
48.9403	52.8511	687.6382	54.9725	-265.5424	-20.4131	571.9303	1.8855	111.9597	-2.6122	36.9025	2.5562	114.6459	-0.0592	0.0182	-0.0073	-0.0462	0.0165	0.9585
48.9594	50.3523	661.4697	55.031	-254.6307	-21.6491	550.1945	-1.8497	156.6171	-5.1725	51.5483	6.6228	161.0344	-0.0592	0.0182	-0.0073	-0.0462	0.0165	0.9585
48.9786	46.48	627.1531	54.0992	-240.5426	-22.7034	522.4003	-7.0959	203.3001	-8.5293	66.8199	12.0015	209.7472	-0.0592	0.0182	-0.0073	-0.0462	0.0165	0.9585
48.9977	41.6223	586.7026	52.1802	-224.1168	-23.4251	490.0184	-13.1167	248.5044	-12.3162	81.5722	18.0475	257.0919	-0.0592	0.0182	-0.0073	-0.0462	0.0165	0.9585
49.0169	36.4096	543.4495	49.453	-206.6986	-23.6969	455.5376	-19.3055	290.7004	-16.076	95.306	24.0782	301.4297	-0.0592	0.0182	-0.0073	-0.0462	0.0165	0.9585
49.036	31.5287	500.8248	46.184	-189.664	-23.4396	421.5182	-25.2167	329.7102	-19.4474	107.9551	29.5841	342.5465	-0.0592	0.0182	-0.0073	-0.0462	0.0165	0.9585
49.0551	27.4977	461.1722	42.6205	-173.9534	-22.6174	389.6846	-30.4908	365.551	-22.2362	119.5021	34.2668	380.4386	-0.0592	0.0182	-0.0073	-0.0462	0.0165	0.9585
49.0743	24.5382	425.211	38.9541	-159.8577	-21.2615	360.5245	-34.886	398.0457	-24.4307	129.8542	38.054	414.9097	-0.0592	0.0182	-0.0073	-0.0462	0.0165	0.9585
49.0934	22.6303	392.2385	35.3128	-147.0982	-19.459	333.4398	-38.2888	426.9843	-26.1768	138.9064	41.074	445.7267	-0.0592	0.0182	-0.0073	-0.0462	0.0165	0.9585
49.1126	21.6311	360.7821	31.7553	-135.0864	-17.3053	307.2447	-40.7091	452.4259	-27.7088	146.6539	43.5767	472.9084	-0.0592	0.0182	-0.0073	-0.0462	0.0165	0.9585
49.1317	21.3407	329.285	28.2757	-123.1935	-14.8727	280.7134	-42.2544	474.9917	-29.2394	153.299	45.8176	497.0128	-0.0592	0.0182	-0.0073	-0.0462	0.0165	0.9585
49.1509	21.5541	296.5569	24.8329	-110.9288	-12.2112	252.9352	-43.0848	495.9188	-30.9152	159.2672	47.9979	519.2072	-0.0592	0.0182	-0.0073	-0.0462	0.0165	0.9585
49.17	22.072	261.9698	21.3834	-98.018	-9.3683	223.4662	-43.3902	516.7853	-32.827	165.1097	50.2653	541.0077	-0.0592	0.0182	-0.0073	-0.0462	0.0165	0.9585
49.1891	22.6633	225.5347	17.9133	-84.4335	-6.4283	192.3901	-43.3737	539.1261	-35.0074	171.3723	52.7082	563.8943	-0.0592	0.0182	-0.0073	-0.0462	0.0165	0.9585
49.2083	23.0347	187.9295	14.4536	-70.4083	-3.5329	160.3345	-43.2108	564.0913	-37.4212	178.4795	55.3366	588.9585	-0.0592	0.0182	-0.0073	-0.0462	0.0165	0.9585
49.2274	22.8543	150.4581	11.0917	-56.4186	-0.88011	128.4276	-43.0158	592.2169	-39.9878	186.6523	58.0964	616.6773	-0.0592	0.0182	-0.0073	-0.0462	0.0165	0.9585
49.2466	21.8367	114.8449	7.9705	-43.1046	1.3044	98.1286	-42.8402	623.2465	-42.6169	195.8479	60.9045	646.745	-0.0592	0.0182	-0.0073	-0.0462	0.0165	0.9585
49.2657	19.8477	82.8174	5.2465	-31.114	2.834	70.8865	-42.6776	656.0636	-45.1997	205.7383	63.641	678.0137	-0.0592	0.0182	-0.0073	-0.0462	0.0165	0.9585
49.2849	16.9296	55.6548	3.034	-20.9327	3.6159	47.7692	-42.4603	688.7897	-47.5977	215.742	66.1353	708.5966	-0.0592	0.0182	-0.0073	-0.0462	0.0165	0.9585
49.304	13.3074	34.0006	1.3955	-12.8079	3.6676	29.3212	-42.0493	719.0894	-49.6805	225.1211	68.1972	736.1724	-0.0592	0.0182	-0.0073	-0.0462	0.0165	0.9585
49.3231	9.42	17.9005	0.33481	-6.7611	3.1362	15.5912	-41.236	744.6965	-51.3673	233.1492	69.6614	758.5026	-0.0592	0.0182	-0.0073	-0.0462	0.0165	0.9585
49.3423	5.8012	6.9061	-0.23014	-2.6272	2.2822	6.2043	-39.809	763.9579	-52.6242	239.2855	70.4088	773.9902	-0.0592	0.0182	-0.0073	-0.0462	0.0165	0.9585
49.3614	2.8272	0.19106	-0.44039	-0.098216	1.3617	0.46327	-37.6777	776.2657	-53.4502	243.3105	70.3989	782.142	-0.0592	0.0182	-0.0073	-0.0462	0.0165	0.9585
49.3806	0.62363	-3.2757	-0.42541	1.2101	0.52934	-2.5039	-34.9633	782.2837	-53.8808	245.3975	69.7047	783.8044	-0.0592	0.0182	-0.0073	-0.0462	0.0165	0.9585
49.3997	-0.85341	-4.5069	-0.28729	1.6763	-0.14422	-3.556	-31.9934	783.7832	-53.9873	246.065	68.5088	780.9678	-0.0592	0.0182	-0.0073	-0.0462	0.0165	0.9585
49.4189	-1.7308	-4.3595	-0.10069	1.6221	-0.63948	-3.4219	-29.1839	783.1172	-53.8627	246.0192	67.0483	776.1764	-0.0592	0.0182	-0.0073	-0.0462	0.0165	0.9585
49.438	-2.1636	-3.4849	0.085321	1.2915	-0.96749	-2.6601	-26.8739	782.6335	-53.6072	245.975	65.5473	771.8775	-0.0592	0.0182	-0.0073	-0.0462	0.0165	0.9585
49.4571	-2.3006	-2.3298	0.24533	0.85272	-1.1608	-1.6609	-25.2238	784.243	-53.3123	246.5235	64.1648	769.9645	-0.0592	0.0182	-0.0073	-0.0462	0.0165	0.9585
49.4763	-2.2642	-1.1727	0.37046	0.41243	-1.259	-0.66548	-24.2026	789.1446	-53.0439	248.0468	62.9749	771.5225	-0.0592	0.0182	-0.0073	-0.0462	0.0165	0.9585
49.4954	-2.1484	-0.16504	0.46095	0.028913	-1.299	0.19832	-23.627	797.6892	-52.8314	250.6705	61.9666	776.7388	-0.0592	0.0182	-0.0073	-0.0462	0.0165	0.9585
49.5146	-2.0204	0.62288	0.52115	-0.27014	-1.3094	0.87138	-23.2455	809.3533	-52.6559	254.2473	61.057	784.9357	-0.0592	0.0182	-0.0073	-0.0462	0.0165	0.9585
49.5337	-1.9251	1.1677	0.5589	-0.47494	-1.3116	1.3287	-22.8074	822.825	-52.4587	258.3784	60.1221	794.7025	-0.0592	0.0182	-0.0073	-0.0462	0.0165	0.9585
49.5529	-1.8865	1.462	0.58395	-0.58218	-1.3218	1.5541	-22.0796	836.2207	-52.1703	262.4811	59.0283	804.1276	-0.0592	0.0182	-0.0073	-0.0462	0.0165	0.9585
49.572	-1.9126	1.4963	0.60224	-0.58711	-1.3487	1.5308	-20.861	847.3993	-51.7369	265.8886	57.6592	811.1095	-0.0592	0.0182	-0.0073	-0.0462	0.0165	0.9585
49.5911	-2.0006	1.2526	0.61784	-0.48161	-1.3966	1.2348	-19.0242	854.3353	-51.1206	267.9666	55.9336	813.7161	-0.0592	0.0182	-0.0073	-0.0462	0.0165	0.9585
49.6103	-2.1365	0.70203	0.62995	-0.25329	-1.4581	0.63807	-16.532	855.5215	-50.293	268.2417	53.8086	810.5636	-0.0592	0.0182	-0.0073	-0.0462	0.0165	0.9585
49.6294	-2.2885	-0.18474	0.63003	0.11191	-1.5129	-0.29005	-13.4155	850.2552	-49.244	266.4949	51.2786	801.0665	-0.0592	0.0182	-0.0073	-0.0462	0.0165	0.9585
49.6486	-2.4085	-1.4109	0.60285	0.6189	-1.5289	-1.5651	-9.7478	838.7079	-47.9836	262.7853	48.3716	785.4804	-0.0592	0.0182	-0.0073	-0.0462	0.0165	0.9585
49.6677	-2.4323	-2.9274	0.52753	1.2485	-1.4597	-3.1472	-5.6264	821.8224	-46.5467	257.4152	45.1473	764.7866	-0.0592	0.0182	-0.0073	-0.0462	0.0165	0.9585
49.6869	-2.2729	-4.5918	0.3824	1.9395	-1.2481	-4.8969	-1.1568	801.1646	-45.0044	250.8822	41.7052	740.5242	-0.0592	0.0182	-0.0073	-0.0462	0.0165	0.9585
49.706	-1.8197	-6.109	0.14954	2.565	-0.82905	-6.5068	3.5515	778.7013	-43.4586	243.8071	38.1804	714.5668	-0.0592	0.0182	-0.0073	-0.0462	0.0165	0.9585
49.7251	-0.94392	-6.9688	-0.1849	2.9094	-0.13197	-7.4444	8.3844	756.481	-42.0228	236.8342	34.7243	688.8389	-0.0592	0.0182	-0.0073	-0.0462	0.0165	0.9585
49.7443	0.48162	-6.3946	-0.62622	2.6475	0.90445	-6.9038	13.2118	736.2628	-40.8011	230.5138	31.4857	664.9948	-0.0592	0.0182	-0.0073	-0.0462	0.0165	0.9585
49.7634	2.5516	-3.3138	-1.1541	1.3328	2.302	-3.7701	17.8638	719.1619	-39.8658	225.1905	28.5945	644.1139	-0.0592	0.0182	-0.0073	-0.0462	0.0165	0.9585
49.7826	5.2788	3.6145	-1.7043	-1.5917	4.0013	3.3537	22.1436	705.4343	-39.2417	220.9366	26.1447	626.5108	-0.0592	0.0182	-0.0073	-0.0462	0.0165	0.9585
49.8017	8.5244	15.8797	-2.1498	-6.7401	5.8095	16.024	25.855	694.4516	-38.8949	217.5467	24.1774	611.7136	-0.0592	0.0182	-0.0073	-0.0462	0.0165	0.9585
49.8209	11.8803	34.8647	-2.2777	-14.6808	7.3324	35.7075	28.8122	684.7796	-38.7289	214.565	22.6758	598.5519	-0.0592	0.0182	-0.0073	-0.0462	0.0165	0.9585
49.84	14.4969	61.4724	-1.8142	-25.7775	7.9307	63.386	30.8404	674.343	-38.586	211.3357	21.5713	585.313	-0.0592	0.0182	-0.0073	-0.0462	0.0165	0.9585
49.8591	15.1852	95.6826	-0.46757	-40.0041	6.8079	99.1011	31.7793	660.7832	-38.2647	207.1151	20.7531	570.0446	-0.0592	0.0182	-0.0073	-0.0462	0.0165	0.9585
49.8783	13.3186	136.6759	2.0265	-56.9944	3.4278	142.0664	31.5182	641.9713	-37.5688	201.2331	20.0928	550.9818	-0.0592	0.0182	-0.0073	-0.0462	0.0165	0.9585
49.8974	9.1903	182.8675	5.8057	-76.0622	-2.2392	190.621	30.0388	616.4738	-36.3634	193.2409	19.4833	526.928	-0.0592	0.0182	-0.0073	-0.0462	0.0165	0.9585
49.9166	3.5282	231.5046	10.7263	-96.0655	-9.7439	241.7946	27.4437	583.9044	-34.5689	183.0242	18.8249	497.5398	-0.0592	0.0182	-0.0073	-0.0462	0.0165	0.9585
49.9357	-2.7081	279.2444	16.1733	-115.6617	-18.0223	291.9542	23.9748	545.2453	-32.1852	170.9045	18.0373	463.5802	-0.0592	0.0182	-0.0073	-0.0462	0.0165	0.9585
49.9549	-8.6675	323.7295	21.3753	-133.9299	-25.8918	338.4793	20.0054	502.7974	-29.3454	157.6154	17.1009	426.8698	-0.0592	0.0182	-0.0073	-0.0462	0.0165	0.9585
49.974	-13.8288	364.2322	25.7967	-150.6046	-32.5773	380.4967	15.9719	459.5761	-26.3057	144.1074	16.0707	389.8039	-0.0592	0.0182	-0.0073	-0.0462	0.0165	0.9585
